<svg xmlns="http://www.w3.org/2000/svg" version="1.1" xmlns:xlink="http://www.w3.org/1999/xlink" xmlns:svgjs="http://svgjs.com/svgjs" width="1440" height="560" preserveAspectRatio="none" viewBox="0 0 1440 560">
    <g mask="url(&quot;#SvgjsMask1013&quot;)" fill="none">
        <rect width="1440" height="560" x="0" y="0" fill="url(#SvgjsLinearGradient1014)"></rect>
        <path d="M1440 0L893.27 0L1440 145.06z" fill="rgba(255, 255, 255, .1)"></path>
        <path d="M893.27 0L1440 145.06L1440 197.58L648.0699999999999 0z" fill="rgba(255, 255, 255, .075)"></path>
        <path d="M648.0699999999999 0L1440 197.58L1440 267.77L343.2799999999999 0z" fill="rgba(255, 255, 255, .05)"></path>
        <path d="M343.28 0L1440 267.77L1440 313.78L205.58999999999997 0z" fill="rgba(255, 255, 255, .025)"></path>
        <path d="M0 560L114.55 560L0 439.73z" fill="rgba(0, 0, 0, .1)"></path>
        <path d="M0 439.73L114.55 560L510.07 560L0 372.95000000000005z" fill="rgba(0, 0, 0, .075)"></path>
        <path d="M0 372.95L510.07 560L810.03 560L0 173.28z" fill="rgba(0, 0, 0, .05)"></path>
        <path d="M0 173.27999999999997L810.03 560L1064.9 560L0 114.27999999999997z" fill="rgba(0, 0, 0, .025)"></path>
    </g>
    <defs>
        <mask id="SvgjsMask1013">
            <rect width="1440" height="560" fill="#ffffff"></rect>
        </mask>
        <linearGradient x1="15.28%" y1="-39.29%" x2="84.72%" y2="139.29%" gradientUnits="userSpaceOnUse" id="SvgjsLinearGradient1014">
            <stop stop-color="#0e2a47" offset="0"></stop>
            <stop stop-color="#00459e" offset="1"></stop>
        </linearGradient>
    </defs>
</svg>