<svg xmlns="http://www.w3.org/2000/svg" version="1.1" xmlns:xlink="http://www.w3.org/1999/xlink" xmlns:svgjs="http://svgjs.com/svgjs" width="1920" height="1260" preserveAspectRatio="none" viewBox="0 0 1920 1260">
    <g mask="url(&quot;#SvgjsMask1010&quot;)" fill="none">
        <rect width="1920" height="1260" x="0" y="0" fill="#0e2a47"></rect>
        <path d="M 0,494 C 76.8,436.8 230.4,240.8 384,208 C 537.6,175.2 614.4,318.6 768,330 C 921.6,341.4 998.4,247.4 1152,265 C 1305.6,282.6 1382.4,468.4 1536,418 C 1689.6,367.6 1843.2,94 1920,13L1920 1260L0 1260z" fill="#184a7e"></path>
        <path d="M 0,1165 C 128,1092.2 384,813.6 640,801 C 896,788.4 1024,1105.4 1280,1102 C 1536,1098.6 1792,847.6 1920,784L1920 1260L0 1260z" fill="#2264ab"></path>
    </g>
    <defs>
        <mask id="SvgjsMask1010">
            <rect width="1920" height="1260" fill="#ffffff"></rect>
        </mask>
    </defs>
</svg>